<?xml version="1.0" standalone="no"?>
<!DOCTYPE svg PUBLIC "-//W3C//DTD SVG 20010904//EN"
 "http://www.w3.org/TR/2001/REC-SVG-20010904/DTD/svg10.dtd">
<svg version="1.0" xmlns="http://www.w3.org/2000/svg"
 width="260.000000pt" height="260.000000pt" viewBox="0 0 260.000000 260.000000"
 preserveAspectRatio="xMidYMid meet">
<metadata>
Created by potrace 1.14, written by Peter Selinger 2001-2017
</metadata>
<g transform="translate(0.000000,260.000000) scale(0.100000,-0.100000)"
fill="#000000" stroke="none">
<path d="M945 2479 c-22 -20 -40 -47 -47 -73 -10 -38 -16 -43 -77 -70 -221
-98 -422 -292 -534 -516 -67 -132 -116 -310 -117 -417 0 -50 -2 -53 -36 -69
-47 -22 -111 -88 -124 -128 -29 -89 39 -196 100 -158 20 12 30 6 30 -16 0 -8
14 -30 30 -49 21 -24 30 -43 28 -63 -2 -27 -6 -30 -35 -30 -19 0 -43 -9 -59
-23 -22 -19 -25 -28 -19 -55 3 -18 11 -32 16 -32 5 0 19 -11 31 -25 12 -14 28
-25 35 -25 18 0 17 -2 -18 -59 -88 -141 -14 -338 156 -418 50 -23 76 -28 155
-31 126 -3 151 -3 177 2 21 5 22 3 8 -17 -8 -12 -12 -32 -9 -43 6 -22 61 -54
92 -54 10 0 96 20 192 44 l175 44 30 -20 c57 -37 170 -88 195 -88 30 0 123 42
167 76 17 13 44 24 60 24 15 0 91 -17 168 -37 177 -46 215 -50 249 -28 39 26
47 47 31 79 l-14 27 32 -6 c37 -7 42 -7 167 -3 78 3 105 8 155 31 112 52 188
166 188 281 0 64 -24 136 -57 169 -16 16 -16 17 6 27 37 15 81 67 81 95 0 37
-22 55 -78 63 -40 6 -46 9 -33 20 8 6 35 14 58 16 76 8 116 57 88 109 -17 32
-40 47 -58 37 -12 -7 -21 0 -35 26 -10 19 -22 34 -27 34 -4 0 -8 7 -8 15 0 9
14 17 38 21 47 8 82 40 82 73 0 52 -42 97 -117 126 -3 1 -8 39 -18 117 -16
130 -96 334 -183 463 -56 83 -187 217 -259 265 -33 22 -53 42 -53 55 -1 35
-37 103 -64 121 -36 23 -92 21 -145 -4 l-43 -21 -61 23 c-132 49 -319 70 -459
51 -45 -7 -48 -5 -86 34 -51 53 -94 56 -147 10z"/>
<path d="M2150 2391 c-54 -22 -80 -61 -80 -122 0 -36 6 -47 40 -81 61 -57 132
-51 178 16 37 54 22 143 -30 175 -25 16 -84 22 -108 12z"/>
<path d="M400 2287 c0 -32 -25 -70 -54 -82 l-30 -13 32 -16 c35 -18 52 -43 53
-78 0 -18 4 -14 19 19 12 26 31 48 50 58 l32 17 -33 16 c-20 11 -37 29 -43 49
-13 37 -26 53 -26 30z"/>
<path d="M145 2100 c-8 -59 -35 -97 -84 -118 l-36 -15 43 -18 c33 -14 47 -28
62 -61 11 -24 20 -54 20 -68 1 -17 6 -9 17 25 17 57 45 91 88 109 l29 12 -39
20 c-46 23 -73 65 -74 116 -1 56 -18 55 -26 -2z"/>
<path d="M2321 2115 c-11 -40 -29 -61 -57 -67 -16 -3 -14 -6 13 -23 22 -12 38
-33 47 -60 l14 -40 7 30 c9 34 42 75 62 75 7 0 13 5 13 10 0 6 -6 10 -14 10
-19 0 -56 47 -56 71 0 33 -19 30 -29 -6z"/>
<path d="M65 959 c-10 -15 3 -25 16 -12 7 7 7 13 1 17 -6 3 -14 1 -17 -5z"/>
<path d="M146 952 c-2 -4 -1 -14 4 -21 11 -19 41 -6 34 14 -6 16 -29 20 -38 7z"/>
</g>
</svg>
